<svg xmlns="http://www.w3.org/2000/svg" width="1470.78" height="284.16" viewBox="0 0 1470.78 284.16"><defs><style>.cls-1{fill:#a9def2;}.cls-2{fill:#0d99d4;}.cls-3{fill:#cfd0cf;}.cls-4{fill:#74bd45;}.cls-5{fill:#a8def2;}.cls-6{fill:#0d98d4;}.cls-7{fill:#89b6c5;}.cls-8{fill:#0886ca;}.cls-9{fill:#06723a;}.cls-10{fill:#085e2f;}.cls-11{fill:#5e9c38;}.cls-12{fill:#03512d;}.cls-13{fill:#408839;}.cls-14{fill:#066ba0;}.cls-15{fill:#39434c;}</style></defs><title>Asset 1</title><g id="Layer_2" data-name="Layer 2"><g id="Layer_1-2" data-name="Layer 1"><path class="cls-1" d="M59.27,108.94c-13-14.64-25.83-29.44-39-43.88-9.06-9.9-11.33-21.2-5.8-33.41,3.2-7.06,6.56-14,9.67-21.13C29.74-2.38,37.64-3.33,46.8,7.21,62.36,25.09,78.31,42.62,94.15,60.26A41.11,41.11,0,0,0,98.55,64q.05,1.35.1,2.71l-1.47,43.2-36.29-.51Z"/><path class="cls-2" d="M196.07,111.91q35.15.86,70.31,1.72a57.37,57.37,0,0,1,8,.43c8,1.34,12,7.08,9.11,14.73-4.14,11-8.52,22.12-14.12,32.46-5.07,9.36-14.15,13.48-24.94,13.13q-24.27-.78-48.54-1.63l-2.48-.84-26.3-30.73a8.75,8.75,0,0,1,.34-1.33l27.27-27.47Z"/><path class="cls-3" d="M157,217.21q-.06,16.7-.13,33.39c-.06,12.92-6.95,22.2-19.12,25.75q-11.45,3.34-22.92,6.62c-14.4,4.14-21-2.74-19.81-17.66,1.37-17.07.54-34.32.66-51.49a8.28,8.28,0,0,1,.06-1.31L125.92,183c3.49,2.22,6,5.42,8.72,8.45,7.29,8.17,14,16.86,22.27,24.14Z"/><path class="cls-4" d="M95.78,212.52a8.26,8.26,0,0,0-.06,1.31C90,219.38,84.36,225,78.63,230.49c-8.75,8.44-19.14,11-30.72,7.7-9-2.56-18-5.56-26.85-8.66-10.27-3.59-12-10.79-4.47-18.73,13.62-14.4,27.36-28.69,41-43a4.64,4.64,0,0,1,1.34-.48L95.69,169Z"/><path class="cls-3" d="M98.65,66.7q-.05-1.35-.1-2.71c0-6.77.18-13.54.06-20.31-.23-13.15,6.56-21.92,17.64-27.58,8.58-4.38,17.53-8.06,26.4-11.86C152.32.1,158.38,4,158.42,14.37c.06,16.2,0,32.4,0,48.6L157,65.46,126.52,96.22c-1.94-1.05-3.12-2.85-4.58-4.42C114.18,83.43,107.6,74,98.65,66.7Z"/><path class="cls-5" d="M157,217.21l-.11-1.66c0-12.19,0-24.38.08-36.57,0-2.53-.81-5.33,1.5-7.44l34.87.37,2.48.84c4.27,8.65,12.28,14.18,18.14,21.55,7.57,9.52,9.41,18.61,3.5,29.36-4.07,7.4-8.49,14.63-13.15,21.68-4.95,7.49-13.19,8.13-19.69,1.42C175.27,237.08,166.22,227.07,157,217.21Z"/><path class="cls-4" d="M157,65.46,158.41,63q12.54-12.63,25.09-25.26c8.46-8.48,15.77-7.25,21,3.63,3.85,8.08,7.56,16.23,11.19,24.42,5.1,11.47,3.12,22.19-5.61,31.41l-14,14.74-1.4.46-15.95-.5c-1.41-1.59-2.86-1.57-4.35-.12-5.34.07-10.69.66-16-.44,0-11.81.1-23.62-.1-35.43C158.22,72.41,159.64,68.64,157,65.46Z"/><path class="cls-6" d="M59,167.3a4.64,4.64,0,0,0-1.34.48l-45-1.75c-11.73-.45-15.5-6.65-10.32-17.3,3.91-8,7.88-16.07,12.16-23.93,5.7-10.47,14.75-15.68,26.66-15.82,6.06-.07,12.12,0,18.18,0l1.63.45c7.32,10.54,17.89,18.32,24.81,29.2Z"/><path class="cls-7" d="M98.65,66.7c8.95,7.26,15.53,16.73,23.29,25.1,1.46,1.57,2.64,3.37,4.58,4.42q-.13.62-.24,1.25a65.31,65.31,0,0,0-12.19,12.77,3.73,3.73,0,0,0-1.15.44H97.23q0-.39,0-.78Z"/><path class="cls-8" d="M85.71,138.59c-6.92-10.88-17.49-18.66-24.81-29.2l36.29.51q0,.39,0,.78,0,8,0,16a6,6,0,0,0-.13,1.17A57.77,57.77,0,0,0,87,138.3,10.86,10.86,0,0,0,85.71,138.59Z"/><path class="cls-8" d="M193.36,171.91l-34.87-.37a7.62,7.62,0,0,1-.26-1.11q.05-10.26.1-20.51a6.69,6.69,0,0,0,.16-1.11l8.56-7.62Z"/><path class="cls-9" d="M158.38,111.31c5.3,1.11,10.66.52,16,.45l4.35.12,15.95.5L167.4,139.84c-3.89.25-5.22-4.6-9-4.51q0-2.89-.06-5.78,0-8.75,0-17.5A6.83,6.83,0,0,1,158.38,111.31Z"/><path class="cls-10" d="M158.38,135.33c3.8-.09,5.14,4.76,9,4.51a8.83,8.83,0,0,0-.34,1.34l-8.56,7.62Q158.44,142.07,158.38,135.33Z"/><path class="cls-7" d="M158.24,170.43a7.78,7.78,0,0,0,.26,1.11c-2.31,2.11-1.48,4.9-1.5,7.43-.09,12.19-.07,24.38-.08,36.57-8.25-7.28-15-16-22.27-24.14-2.7-3-5.23-6.23-8.72-8.45q.13-.55.22-1.12A48.16,48.16,0,0,0,137,170.66a4.22,4.22,0,0,0,1.19-.43Z"/><path class="cls-11" d="M126.14,181.85q-.09.56-.22,1.12L95.78,212.52q0-21.75-.08-43.5l1.52-.3,14.55.18,5.75,1.6C119.19,175.18,123,178.29,126.14,181.85Z"/><path class="cls-9" d="M97.22,168.71l-1.52.3L59,167.29l26.73-28.71A11.12,11.12,0,0,1,87,138.3a31.69,31.69,0,0,0,8.72,8.7,10.32,10.32,0,0,1,1.48,5.81Z"/><path class="cls-11" d="M126.28,97.47q.11-.63.24-1.25L157,65.46c2.67,3.18,1.25,7,1.31,10.42.2,11.81.09,23.62.1,35.43a6.69,6.69,0,0,0,0,.74c-5.83-.41-11.58-2.25-17.5-.93l-4.22-.81C134,105.4,131.22,100.54,126.28,97.47Z"/><path class="cls-11" d="M178.72,111.88l-4.35-.12C175.86,110.31,177.32,110.28,178.72,111.88Z"/><path class="cls-12" d="M136.63,110.31l4.22.81c5.21,6.73,9,14.77,17.47,18.44q0,2.89.06,5.78.06,6.73.13,13.47a6.65,6.65,0,0,1-.16,1.11,202.81,202.81,0,0,0-20.11,20.32,4.21,4.21,0,0,1-1.2.43l-19.52-.18-5.75-1.6c-3.64-6.45-7.11-13-14.52-16.08A10.32,10.32,0,0,0,95.76,147c3.14-6.21.75-12.8,1.34-19.18a6,6,0,0,1,.13-1.17,120.48,120.48,0,0,0,15.7-16,3.72,3.72,0,0,1,1.15-.44Z"/><path class="cls-13" d="M136.63,110.31l-22.54-.07a65.24,65.24,0,0,1,12.19-12.77C131.22,100.54,134,105.4,136.63,110.31Z"/><path class="cls-14" d="M112.94,110.67a120.48,120.48,0,0,1-15.7,16q0-8,0-16Z"/><path class="cls-10" d="M97.1,127.82c-.59,6.38,1.8,13-1.34,19.18A31.69,31.69,0,0,1,87,138.3,57.78,57.78,0,0,1,97.1,127.82Z"/><path class="cls-14" d="M138.23,170.23a202.81,202.81,0,0,1,20.11-20.32q-.05,10.26-.1,20.51Z"/><path class="cls-10" d="M158.32,129.55c-8.44-3.66-12.26-11.71-17.47-18.44,5.92-1.31,11.67.53,17.5.94Q158.33,120.8,158.32,129.55Z"/><path class="cls-13" d="M117.51,170.48l19.52.18a48.13,48.13,0,0,1-10.9,11.18C123,178.29,119.19,175.18,117.51,170.48Z"/><path class="cls-10" d="M97.24,152.81c7.41,3,10.88,9.63,14.52,16.08l-14.55-.18Q97.23,160.76,97.24,152.81Z"/><g id="_29qZrl.tif" data-name="29qZrl.tif"><path class="cls-15" d="M1052.68,73.33H1039c-1.87-5.09-3.7-10.29-7.57-14.55-6.21-6.84-13.94-10.8-22.76-12.78a81.45,81.45,0,0,0-35.43,0c-11,2.4-22.41,9.53-24,23.09a26.73,26.73,0,0,0,13.94,26.76c8.62,4.59,17.85,7.35,27.23,9.62,15.08,3.64,30.16,7.26,43.51,15.6,12.29,7.68,18.11,18.82,18.73,33.47.93,22-14.71,36.69-30.43,42.27s-31.93,5.92-48.28,3c-13.76-2.47-25.57-8.43-34.68-19.19a44.38,44.38,0,0,1-10.31-22.2,14.67,14.67,0,0,1,0-2h13.56c1.34,5.08,3,10.11,6.13,14.57,7.22,10.37,17.73,15,29.63,17.41a75.3,75.3,0,0,0,28.88-.05c9.24-1.72,17.63-5.12,24.27-12.07,12.31-12.9,9.66-37.29-7.51-46.24-9.93-5.18-20.48-8.27-31.21-10.89-11.87-2.9-23.87-5.25-34.93-10.8-16-8-23.67-21.85-22.07-39.67,1.42-15.81,10.78-25.41,24.62-31,13-5.25,26.64-6.13,40.57-4.78,13.06,1.27,25.14,4.93,35.56,13A42.28,42.28,0,0,1,1052.68,73.33Z"/><path class="cls-15" d="M463.24,144.19H476.1a44.13,44.13,0,0,1-3.31,15.69c-7.66,20-21.59,33.84-42.47,39.09-21.57,5.43-42.78,3.81-61.62-9.27-16.24-11.27-25.65-27.26-29.66-46.6a121.27,121.27,0,0,1-2.21-35.5C338.12,93,341,78.78,348.9,66.05c10.1-16.26,24-27.43,43-31.5,23.78-5.09,46-1.9,65.25,13.83,10.49,8.56,16.43,20.1,18.94,33.37a3.89,3.89,0,0,1-.48,3.55A49.24,49.24,0,0,1,463.14,85c-1.81-9.29-5.44-17.54-11.71-24.42-7.14-7.83-16.11-12.45-26.42-14.69a70.18,70.18,0,0,0-14.23-1.48c-23.17-.27-39.82,10.44-50.94,30.3-4.72,8.44-7,17.71-8.33,27.25-2.14,15.1-1.62,30.06,2.88,44.65,5.33,17.25,15.38,31.09,32.4,38.19,21.2,8.85,41.57,6.81,59.73-8,8.83-7.18,13.51-17.07,15.73-28.14.25-1.26.39-2.54.59-3.81A4.27,4.27,0,0,1,463.24,144.19Z"/><path class="cls-15" d="M1074.3,81.07c3.48-1,6.81-.53,10.41-.36a185.51,185.51,0,0,1,1.9,19.24c2-1.22,2.66-3,3.71-4.37,8.52-11.27,19.76-17.39,33.91-18.08,11.32-.55,22.08,1.08,31.52,7.94,10.7,7.78,16.72,18.45,19.53,31.22a99.3,99.3,0,0,1,2.17,25.7c-.56,13.15-2.72,26-10.14,37.27-10.92,16.63-26.55,23.41-46.08,21.7-13.74-1.2-24.39-7.77-32.08-19.16a2.18,2.18,0,0,0-2.22-1.24v57.42H1074.3Zm12,58.46c-.1,8.94.94,17.72,4.19,26.09,4.8,12.38,13.1,21.43,26.46,24,14.3,2.75,26.88-1.06,36.21-12.9,5.77-7.33,8.5-15.86,9.82-25,1.89-13.25,1.6-26.27-3-39-4.86-13.25-14.32-21.59-28.18-23.67-14.55-2.19-27,2.58-36,14.64C1087.89,114.31,1086.41,126.77,1086.3,139.53Z"/><path class="cls-15" d="M1283.05,198.07h-9.93c-1.9-5.22-.71-10.75-2-15.88-1.25-.6-1.67.25-2.25,1-10.81,14.67-25.81,19.35-43.3,18.18a44.14,44.14,0,0,1-21.67-6.87c-10.86-7-14.5-19.59-13.07-31.42,2-16.27,13-23.93,27-28.58,11.54-3.82,23.61-5.18,35.55-7.16,5.51-.91,11-2,16.44-3,3.12-17.28-3.3-32.95-23.56-35.74-10-1.38-19.53-.5-28.14,5.24-5.46,3.64-9.09,8.58-10.17,15.2a8.34,8.34,0,0,1-.5,1.67,6.8,6.8,0,0,1-.7,1.06h-12.28c-.84-5.25,1-9.86,3.37-14,6-10.35,15.29-16.33,26.87-18.86a68.83,68.83,0,0,1,28.79-.16c17.29,3.53,29.91,16.85,29.87,36.39-.06,26.87,0,53.73,0,80.6A20.79,20.79,0,0,1,1283.05,198.07Zm-13.55-62.6c-2.15.25-4.35.4-6.52.78-9.51,1.68-19,3.31-28.5,5.2-7.64,1.53-15.12,3.6-21.67,8.17-11.62,8.1-11.81,26.45-.52,34.93,9.52,7.15,29.11,8.34,41.92-.5,11-7.55,16.86-17.38,16.25-30.88-.21-4.66,0-9.34,0-14C1270.42,138,1270.79,136.8,1269.51,135.47Z"/><path class="cls-15" d="M1470.25,198.08h-16.57l-61.55-60-1,.57v59.26h-12.66V36.17h12.65v90l.95.62,54.14-46h16.57l.49.92-59.09,50.32,66.55,65.17Z"/><path class="cls-15" d="M803.17,77.4c20.14-.09,36,8.65,45.88,27.34a59.57,59.57,0,0,1,6.58,25.85c.44,11.43.63,22.83-2.8,34-6,19.52-18.67,32.51-38.79,36-24.09,4.14-45.66-2.35-59-26.52-4.9-8.86-6.72-18.65-7.17-28.58-.6-13.23.25-26.4,6.12-38.63,7.06-14.7,18.31-24.28,34.46-28C793.09,77.69,797.68,77.72,803.17,77.4Zm39.69,62.13a68.78,68.78,0,0,0-2.9-21.74c-4.9-15.93-14.63-26.67-32-29.28-17.62-2.65-34.35,6.24-41.48,22.73-6.49,15-7,30.72-3.32,46.33,4,17.3,14,29.67,32.55,32.74,15.36,2.54,28.12-2.38,37.42-15C841,164.74,842.59,152.27,842.86,139.54Z"/><path class="cls-15" d="M619.91,109.79c-4.38,1.66-8.72.46-13.14.81-2.26-9.88-8.36-16-17.16-19.71A38.94,38.94,0,0,0,574.25,88c-7.21,0-14.41.64-20.88,4.62-12.45,7.65-12.27,23.82.5,31,8.16,4.6,17.27,6.1,26.26,8,10.28,2.17,20.34,4.84,29.17,11a24.38,24.38,0,0,1,11,20.37c.46,19.31-10.57,32.65-29.75,36.76-12.8,2.74-25.55,2.83-37.93-1.57-12.9-4.59-21.51-13.55-25-27.06a12.38,12.38,0,0,1-.32-2.07c-.05-.68,0-1.37,0-2.35a86.86,86.86,0,0,1,12.4-.21c1.71,1.9,1.29,4.19,2.08,6.12,3.63,8.75,10.36,13.84,19.19,16.43,10.9,3.2,21.72,3,32.06-1.93,7.94-3.75,13.34-9.78,13.88-19,.42-7.29-2.23-13.17-8.61-17.12-7.26-4.5-15.4-6.45-23.62-8.1-9.58-1.92-19.23-3.47-28-8.3-11-6.08-16.27-15.18-15.54-27.83.71-12.17,7.35-20,17.92-24.92a46.61,46.61,0,0,1,18.6-4.21c9.48-.27,18.92-.33,27.9,3.42C607.59,86,617.16,94.68,619.91,109.79Z"/><path class="cls-15" d="M734.14,113.46a77.68,77.68,0,0,1-14.32.16c-2.37-11.75-9.26-19.61-19.84-23-20.55-6.67-39.94.83-48.24,22.62-6.57,17.27-6.62,35.14-.39,52.74a37,37,0,0,0,38.79,24.23c11.6-1.14,20.51-6.26,26.83-16.05,2.07-3.2,2.81-6.86,4.11-10.62h13.46a35.82,35.82,0,0,1-6.32,17.22c-11.38,16.72-27.91,21.83-47.17,20.64-23-1.41-39.44-17.36-44.6-38.12-4.76-19.15-4.7-38.57,3.84-56.81C648.62,88.63,662.8,78.39,683,77.53c10.16-.43,20,.73,29.13,5.63C724.08,89.58,731.32,99.39,734.14,113.46Z"/><path class="cls-15" d="M1321,198h-11.9V80.91a34.07,34.07,0,0,1,10.37-.08l1.84,18.43c5.29-10.9,13-19.09,25-21.31,6.49-1.19,13.46-1.51,20,1.57V90.68a2.43,2.43,0,0,1-3,.72c-20.67-5.92-33.27,7.4-38.22,21.8a63.55,63.55,0,0,0-3,17.47c-1.18,21.71-.21,43.43-.55,65.14A2.64,2.64,0,0,1,1321,198Z"/><path class="cls-15" d="M496.64,81.07c4-1.08,8-.44,12.21-.44V198H496.64Z"/><path class="cls-15" d="M495.54,36.16a97.87,97.87,0,0,1,15.4.14V52.68c-5,.85-10.07.24-15.4.41Z"/></g></g></g></svg>