<svg xmlns="http://www.w3.org/2000/svg" width="1470.78" height="284.16" viewBox="0 0 1470.78 284.16"><defs><style>.cls-1,.cls-3{fill:none;}.cls-2{fill:#fff;}.cls-3{stroke:#fff;stroke-linecap:round;stroke-linejoin:round;stroke-width:0;}</style></defs><title>Asset 2</title><g id="Layer_2" data-name="Layer 2"><g id="Layer_1-2" data-name="Layer 1"><path class="cls-1" d="M158.38,135.33l.13,13.47q-.06-6.73-.13-13.47Z"/><path class="cls-1" d="M158.5,148.8a6.64,6.64,0,0,1-.15,1,6.7,6.7,0,0,0,.15-1l8.31-7.4Z"/><path class="cls-1" d="M122.52,178a34.69,34.69,0,0,1-2.64-3.14A34.7,34.7,0,0,0,122.52,178Z"/><path class="cls-1" d="M126.14,181.85c-.35-.39-.7-.77-1.06-1.15.36.38.71.76,1.06,1.15q-.09.56-.22,1.11C126,182.59,126.08,182.22,126.14,181.85Z"/><path class="cls-1" d="M117.51,170.48l-5.75-1.6-14.55-.18,14.55.18Z"/><path class="cls-1" d="M97.24,152.81q0,8,0,15.9L95.8,169l1.41-.28Q97.23,160.76,97.24,152.81Z"/><path class="cls-1" d="M140.41,198c5.23,6.09,10.46,12.18,16.5,17.51h0C150.87,210.21,145.64,204.12,140.41,198Z"/><path class="cls-1" d="M131.19,101.78a20.68,20.68,0,0,0-4.91-4.32q.11-.63.24-1.25-.13.62-.24,1.25A20.67,20.67,0,0,1,131.19,101.78Z"/><path class="cls-1" d="M158.58,71.21A7.78,7.78,0,0,0,157,65.46L158.4,63,157,65.46A7.78,7.78,0,0,1,158.58,71.21Z"/><path class="cls-1" d="M85.71,138.59,59,167.29a4.64,4.64,0,0,0-1.34.48,4.64,4.64,0,0,1,1.34-.48Z"/><path class="cls-1" d="M177.66,111c-1.07-.6-2.17-.31-3.29.77-2.22,0-4.44.14-6.67.19,2.22,0,4.44-.16,6.67-.19C175.49,110.67,176.59,110.39,177.66,111Z"/><path class="cls-1" d="M167.06,141.18l26.3,30.73-26.3-30.73Z"/><path class="cls-1" d="M129,179.52a43.74,43.74,0,0,0,8-8.86,4.23,4.23,0,0,0,1.19-.43,4.21,4.21,0,0,1-1.2.43A43.7,43.7,0,0,1,129,179.52Z"/><path class="cls-1" d="M97.23,110.68h0c0-.14,0-.28,0-.41C97.21,110.41,97.22,110.54,97.23,110.68Z"/><path class="cls-1" d="M122.92,100.36a62.4,62.4,0,0,0-8.83,9.88,3.73,3.73,0,0,0-1.15.44,3.72,3.72,0,0,1,1.15-.44A62.32,62.32,0,0,1,122.92,100.36Z"/><path class="cls-1" d="M138.23,170.23l20,.2a7.77,7.77,0,0,0,.26,1.11,7.61,7.61,0,0,1-.26-1.11Z"/><path class="cls-1" d="M95.73,187.74q0-9.36,0-18.72L59,167.29,95.69,169Q95.71,178.38,95.73,187.74Z"/><path class="cls-1" d="M808,88.51c-17.62-2.65-34.35,6.24-41.48,22.73-6.49,15-7,30.72-3.32,46.33,4,17.3,14,29.67,32.55,32.74,15.36,2.54,28.12-2.38,37.42-15,7.82-10.59,9.42-23.07,9.69-35.8a68.78,68.78,0,0,0-2.9-21.74C835.06,101.87,825.33,91.12,808,88.51Z"/><path class="cls-1" d="M194.67,112.37l.89-.29-.89.29L167.4,139.84a8.82,8.82,0,0,0-.34,1.34,8.74,8.74,0,0,1,.34-1.33Z"/><path class="cls-1" d="M1131.74,89c-14.55-2.19-27,2.58-36,14.64-7.9,10.63-9.38,23.09-9.49,35.85-.1,8.94.94,17.72,4.19,26.09,4.8,12.38,13.1,21.43,26.46,24,14.3,2.75,26.88-1.06,36.21-12.9,5.77-7.33,8.5-15.86,9.82-25,1.89-13.25,1.6-26.27-3-39C1155.06,99.46,1145.6,91.13,1131.74,89Z"/><path class="cls-1" d="M1270.43,139.16c0-1.13.37-2.36-.92-3.69-2.15.25-4.35.4-6.52.78-9.51,1.68-19,3.31-28.5,5.2-7.64,1.53-15.12,3.6-21.67,8.17-11.62,8.1-11.81,26.45-.52,34.93,9.52,7.15,29.11,8.34,41.92-.49,11-7.55,16.86-17.38,16.25-30.88C1270.26,148.51,1270.46,143.83,1270.43,139.16Z"/><path class="cls-2" d="M274.34,114.06a57.38,57.38,0,0,0-8-.43q-35.15-.88-70.31-1.72l14-14.74c8.74-9.21,10.71-19.94,5.61-31.41-3.63-8.18-7.34-16.34-11.19-24.42-5.19-10.89-12.5-12.11-21-3.63S166.77,54.55,158.4,63L157,65.46a7.78,7.78,0,0,1,1.62,5.75v0A7.78,7.78,0,0,0,157,65.46L158.4,63c0-16.2.08-32.4,0-48.6C158.38,4,152.32.1,142.65,4.24c-8.87,3.8-17.82,7.47-26.4,11.86-11.08,5.66-17.87,14.43-17.64,27.58.12,6.77,0,13.54-.06,20.31a41.09,41.09,0,0,1-4.4-3.73C78.31,42.62,62.36,25.09,46.8,7.21,37.64-3.33,29.74-2.38,24.08,10.51,21,17.61,17.61,24.59,14.42,31.65c-5.53,12.21-3.26,23.51,5.8,33.41,13.21,14.45,26.05,29.24,39,43.88-6.06,0-12.12,0-18.18,0-11.91.14-21,5.35-26.66,15.82-4.28,7.86-8.24,15.88-12.16,23.93C-2.91,159.38.86,165.57,12.59,166l45,1.75a4.64,4.64,0,0,1,1.34-.48l26.73-28.71L59,167.29,95.69,169q0,9.36,0,18.72,0-9.36,0-18.72L59,167.29a4.64,4.64,0,0,0-1.34.48c-13.69,14.34-27.42,28.63-41,43-7.5,7.93-5.8,15.14,4.47,18.73,8.88,3.1,17.8,6.11,26.85,8.66,11.58,3.28,22,.73,30.72-7.7C84.36,225,90,219.38,95.71,213.82c-.13,17.17.7,34.42-.66,51.49-1.2,14.92,5.41,21.79,19.81,17.66q11.47-3.29,22.92-6.62c12.17-3.55,19.06-12.84,19.12-25.75q.08-16.7.13-33.39c9.19,9.87,18.24,19.87,27.62,29.55,6.5,6.71,14.74,6.07,19.69-1.42,4.66-7,9.08-14.28,13.15-21.68,5.9-10.75,4.07-19.85-3.5-29.36-5.86-7.36-13.87-12.89-18.14-21.55q24.27.82,48.54,1.63c10.79.35,19.87-3.77,24.94-13.13,5.6-10.34,10-21.42,14.12-32.46C286.32,121.14,282.36,115.4,274.34,114.06Zm-100-2.31c1.12-1.08,2.21-1.37,3.29-.77-1.07-.6-2.17-.31-3.29.77-2.22,0-4.44.14-6.67.19C169.93,111.9,172.15,111.78,174.37,111.76Zm-16.14,58.67-20-.2a4.23,4.23,0,0,1-1.19.43,43.74,43.74,0,0,1-8,8.86,43.7,43.7,0,0,0,8-8.86,4.21,4.21,0,0,0,1.2-.43l20,.2a7.61,7.61,0,0,0,.26,1.11A7.77,7.77,0,0,1,158.24,170.43ZM97.18,109.9h0Zm0,.78c0-.14,0-.28,0-.41,0,.14,0,.28,0,.41Zm0,40.59a8.86,8.86,0,0,0-.29-1.47A8.86,8.86,0,0,1,97.23,151.27Zm16.86-41a62.4,62.4,0,0,1,8.83-9.87,62.32,62.32,0,0,0-8.83,9.88,3.72,3.72,0,0,0-1.15.44A3.73,3.73,0,0,1,114.09,110.23Zm12.43-14q-.13.62-.24,1.25a20.68,20.68,0,0,1,4.91,4.32,20.67,20.67,0,0,0-4.91-4.32Q126.39,96.84,126.52,96.22Zm37.32,42.29-.62-.53Zm-38.75,42.2c.36.38.71.76,1.06,1.15-.06.37-.13.75-.22,1.11q.13-.55.22-1.11C125.8,181.46,125.44,181.08,125.09,180.7Zm-5.21-5.85a34.69,34.69,0,0,0,2.64,3.14A34.7,34.7,0,0,1,119.88,174.85Zm38.48-25a6.64,6.64,0,0,0,.15-1l-.13-13.47h0q.06,6.73.13,13.47l8.31-7.4-8.31,7.4A6.7,6.7,0,0,1,158.36,149.82ZM123.78,93.91,123,93ZM65.31,115.07c2,2.4,4.22,4.7,6.4,7C69.53,119.76,67.36,117.47,65.31,115.07Zm27.95,30.08q.6.49,1.22,1Q93.86,145.64,93.26,145.15Zm4,23.56q0-8,0-15.9,0,8,0,15.9l14.55.18,5.75,1.6-5.75-1.6-14.55-.18L95.8,169Zm-1.44,43.8h0Zm36.09-24.24c.59.66,1.18,1.33,1.76,2C133,189.6,132.46,188.93,131.87,188.27Zm8.54,9.77-3.06-3.54,3.06,3.54c5.23,6.09,10.46,12.18,16.5,17.51h0C150.87,210.21,145.64,204.12,140.41,198Zm26.65-56.86h0a8.82,8.82,0,0,1,.34-1.34l27.28-27.47.89-.29-.89.29L167.4,139.84a8.74,8.74,0,0,0-.34,1.33l26.3,30.73Z"/><path class="cls-3" d="M123.78,93.91,123,93"/><path class="cls-3" d="M65.31,115.07c2,2.4,4.22,4.7,6.4,7"/><path class="cls-3" d="M97.18,109.9h0"/><path class="cls-3" d="M163.22,138l.62.53"/><path class="cls-3" d="M140.41,198l-3.06-3.54"/><path class="cls-3" d="M131.87,188.27c.59.66,1.18,1.33,1.76,2"/><path class="cls-3" d="M95.78,212.52h0"/><path class="cls-3" d="M158.58,71.27v-.06"/><path class="cls-3" d="M97.23,151.27a8.86,8.86,0,0,0-.29-1.47"/><path class="cls-3" d="M93.26,145.15q.6.49,1.22,1"/><path class="cls-2" d="M973.24,46a81.45,81.45,0,0,1,35.43,0c8.82,2,16.55,5.94,22.76,12.78,3.87,4.27,5.71,9.46,7.57,14.55h13.67A42.28,42.28,0,0,0,1036.43,46c-10.42-8.08-22.5-11.74-35.56-13-13.93-1.35-27.6-.47-40.57,4.78-13.84,5.6-23.21,15.2-24.62,31-1.6,17.82,6,31.63,22.07,39.67,11.06,5.55,23.06,7.9,34.93,10.8,10.73,2.62,21.28,5.71,31.21,10.89,17.16,9,19.82,33.34,7.51,46.24-6.64,7-15,10.35-24.27,12.07a75.31,75.31,0,0,1-28.88.05c-11.89-2.39-22.41-7-29.63-17.41-3.1-4.45-4.79-9.48-6.13-14.57H928.92a14.66,14.66,0,0,0,0,2,44.38,44.38,0,0,0,10.31,22.2c9.11,10.76,20.93,16.72,34.68,19.19,16.35,2.93,32.52,2.62,48.28-3s31.36-20.27,30.43-42.27c-.62-14.65-6.44-25.79-18.73-33.47-13.34-8.34-28.43-12-43.51-15.6-9.38-2.27-18.61-5-27.23-9.62a26.73,26.73,0,0,1-13.94-26.76C950.84,55.57,962.2,48.44,973.24,46Z"/><path class="cls-2" d="M359.84,74.73c11.11-19.86,27.76-30.57,50.94-30.3A70.21,70.21,0,0,1,425,45.91c10.31,2.25,19.28,6.86,26.42,14.69,6.27,6.88,9.9,15.13,11.71,24.42a49.24,49.24,0,0,0,12.45.29,3.89,3.89,0,0,0,.48-3.55c-2.51-13.28-8.45-24.81-18.94-33.37-19.27-15.73-41.47-18.92-65.25-13.83-19,4.07-32.86,15.24-43,31.5C341,78.78,338.12,93,336.83,107.61A121.28,121.28,0,0,0,339,143.1c4,19.34,13.42,35.34,29.66,46.6,18.85,13.08,40.05,14.7,61.62,9.27,20.87-5.26,34.8-19,42.47-39.09a44.13,44.13,0,0,0,3.31-15.69H463.24a4.27,4.27,0,0,0-.41.71c-.2,1.27-.34,2.55-.59,3.81-2.22,11.07-6.9,21-15.73,28.14-18.17,14.77-38.53,16.81-59.73,8-17-7.1-27.07-20.94-32.4-38.19-4.5-14.59-5-29.55-2.88-44.65C352.86,92.44,355.11,83.16,359.84,74.73Z"/><path class="cls-2" d="M1155.74,85.43c-9.44-6.86-20.2-8.49-31.52-7.94-14.15.69-25.39,6.81-33.91,18.08-1,1.39-1.71,3.15-3.71,4.37a185.52,185.52,0,0,0-1.9-19.24c-3.6-.17-6.93-.6-10.41.36V238.35h12.62V180.93a2.18,2.18,0,0,1,2.22,1.24c7.69,11.4,18.34,18,32.08,19.16,19.53,1.71,35.17-5.07,46.08-21.7,7.42-11.31,9.58-24.11,10.14-37.27a99.3,99.3,0,0,0-2.17-25.7C1172.46,103.89,1166.44,93.21,1155.74,85.43Zm7.23,66.23c-1.31,9.18-4,17.72-9.82,25-9.33,11.84-21.91,15.65-36.21,12.9-13.36-2.56-21.66-11.62-26.46-24-3.25-8.37-4.28-17.15-4.19-26.09.11-12.76,1.59-25.22,9.49-35.85,9-12.06,21.41-16.83,36-14.64,13.86,2.09,23.32,10.42,28.18,23.67C1164.57,125.4,1164.86,138.41,1163,151.67Z"/><path class="cls-2" d="M1253.48,78.82a68.83,68.83,0,0,0-28.79.16c-11.58,2.53-20.89,8.5-26.87,18.86-2.39,4.13-4.21,8.75-3.37,14h12.28a6.81,6.81,0,0,0,.7-1.06,8.34,8.34,0,0,0,.5-1.67c1.07-6.62,4.7-11.56,10.17-15.2,8.62-5.74,18.1-6.62,28.14-5.24,20.26,2.79,26.68,18.45,23.56,35.74-5.45,1-10.94,2.06-16.44,3-11.93,2-24,3.34-35.55,7.16-14.05,4.65-25.05,12.3-27,28.58-1.43,11.84,2.21,24.38,13.07,31.42a44.13,44.13,0,0,0,21.67,6.87c17.48,1.17,32.49-3.51,43.3-18.18.58-.78,1-1.63,2.25-1,1.33,5.12.14,10.66,2,15.88h9.93a20.79,20.79,0,0,0,.27-2.26c0-26.87,0-53.73,0-80.6C1283.39,95.66,1270.78,82.34,1253.48,78.82Zm.74,105.24c-12.81,8.83-32.4,7.64-41.92.49-11.3-8.48-11.11-26.83.52-34.93,6.55-4.57,14-6.64,21.67-8.17,9.47-1.89,19-3.52,28.5-5.2,2.16-.38,4.37-.53,6.52-.78,1.29,1.34.91,2.57.92,3.69,0,4.67-.16,9.35,0,14C1271.08,166.68,1265.18,176.51,1254.22,184.06Z"/><path class="cls-2" d="M1404.22,132.08l59.09-50.32-.49-.92h-16.57l-54.14,46-.95-.62v-90h-12.65V197.95h12.66V138.69l1-.57,61.55,60h16.57l.52-.83Z"/><path class="cls-2" d="M849.05,104.75c-9.89-18.69-25.75-27.44-45.88-27.34-5.49.32-10.08.28-14.73,1.37-16.15,3.76-27.4,13.34-34.46,28-5.87,12.23-6.72,25.4-6.12,38.63.45,9.93,2.27,19.72,7.17,28.58,13.36,24.17,34.92,30.66,59,26.52,20.12-3.46,32.78-16.44,38.79-36,3.43-11.15,3.24-22.54,2.8-34A59.57,59.57,0,0,0,849.05,104.75Zm-6.19,34.79c-.27,12.73-1.87,25.2-9.69,35.8-9.3,12.6-22.06,17.52-37.42,15-18.57-3.07-28.52-15.43-32.55-32.74-3.63-15.61-3.16-31.33,3.32-46.33,7.13-16.49,23.86-25.39,41.48-22.73,17.32,2.61,27,13.35,32,29.28A68.78,68.78,0,0,1,842.86,139.54Z"/><path class="cls-2" d="M609.29,142.62c-8.83-6.12-18.89-8.8-29.17-11-9-1.9-18.11-3.4-26.26-8-12.76-7.19-13-23.36-.5-31,6.48-4,13.67-4.6,20.88-4.62a38.94,38.94,0,0,1,15.36,2.88c8.8,3.72,14.91,9.82,17.16,19.71,4.42-.35,8.76.85,13.14-.81C617.16,94.68,607.59,86,595.69,81c-9-3.76-18.42-3.7-27.9-3.42a46.61,46.61,0,0,0-18.6,4.21C538.61,86.73,532,94.53,531.26,106.7c-.74,12.65,4.58,21.76,15.54,27.83,8.72,4.83,18.37,6.38,28,8.3,8.22,1.65,16.36,3.6,23.62,8.1,6.38,3.95,9,9.83,8.61,17.12-.54,9.26-5.94,15.29-13.88,19C582.76,192,571.94,192.22,561,189c-8.83-2.59-15.55-7.68-19.19-16.43-.8-1.92-.38-4.22-2.08-6.12a86.86,86.86,0,0,0-12.4.21c0,1,0,1.67,0,2.35a12.38,12.38,0,0,0,.32,2.07c3.44,13.51,12.05,22.47,25,27.06,12.38,4.4,25.13,4.31,37.93,1.57,19.18-4.1,30.21-17.45,29.75-36.76A24.38,24.38,0,0,0,609.29,142.62Z"/><path class="cls-2" d="M717,174.13c-6.32,9.79-15.23,14.92-26.83,16.05a37,37,0,0,1-38.79-24.23c-6.23-17.6-6.19-35.48.39-52.74C660,91.41,679.44,83.91,700,90.58c10.58,3.43,17.47,11.29,19.84,23a77.67,77.67,0,0,0,14.32-.16c-2.83-14.06-10.07-23.88-22-30.3-9.16-4.91-19-6.07-29.13-5.63-20.18.86-34.36,11.1-42.69,28.92-8.53,18.24-8.6,37.66-3.84,56.81C641.61,184,658,200,681,201.37c19.26,1.18,35.79-3.93,47.17-20.64a35.82,35.82,0,0,0,6.32-17.22H721.09C719.79,167.27,719,170.93,717,174.13Z"/><path class="cls-2" d="M1346.36,77.94c-12.07,2.22-19.75,10.41-25,21.31l-1.84-18.43a34.07,34.07,0,0,0-10.37.08V198H1321a2.64,2.64,0,0,0,.6-2.21c.34-21.71-.63-43.43.55-65.14a63.55,63.55,0,0,1,3-17.47c5-14.41,17.54-27.72,38.22-21.8a2.43,2.43,0,0,0,3-.72V79.51C1359.82,76.43,1352.85,76.75,1346.36,77.94Z"/><path class="cls-2" d="M496.64,81.07V198h12.21V80.63C504.61,80.64,500.62,80,496.64,81.07Z"/><path class="cls-2" d="M495.54,36.16V53.09c5.33-.16,10.37.44,15.4-.41V36.29A97.85,97.85,0,0,0,495.54,36.16Z"/></g></g></svg>